# xmcd
#
# Track frame offsets:
#	150
#	13701
#	26572
#	36989
#	46834
#	58908
#	69912
#	81995
#	91856
#	103060
#	114543
#	125940
#	138341
#	151097
#	163352
#	175116
#	185260
#	195599
#	207819
#	219880
#	232180
#	242554
#	255036
#	267454
#	278646
#
# Disc length: 3862 seconds
#
# Revision: 1
# Processed by: cddbd v1.5.1PL2 Copyright (c) Steve Scherf et al.
# Submitted via: audiograbber 1.83.01
#
DISCID=5c0f1419
DTITLE=Various Artist - Swingbillies Cd3
DYEAR=2005
DGENRE=Oldies
TTITLE0=Leon McAuliffe - Blue Guitar Stomp
TTITLE1=Red Foley - Hobo Boogie
TTITLE2=Hank Penny - You're Bound To Look Like A Monkey
TTITLE3=Jimmy Bryant - Railroadin'
TTITLE4=Curtis Gorden - Rompin' And Stompin'
TTITLE5=True Blue Papa - Leon Chappel
TTITLE6=Hank Penny - Flamin' Mamie
TTITLE7=Merle Travis - When My Baby Does Here Double Talk
TTITLE8=Tommy Sosebee - All Night Boogie
TTITLE9=Pee Wee King - Bull Fiddle Boogie
TTITLE10=Roy Hogsed - Mean Mean Woman
TTITLE11=Hank Williams - Move It On Over
TTITLE12=Foy Willing - Texas Blues
TTITLE13=Leon McAuliffe - Take It Away, Leon
TTITLE14=Tennessee Ernie Ford - The Shot Gun Boogie
TTITLE15=Curtis Gordon - Where'd Ya Get So Much Of
TTITLE16=Red Foley - Plantation Boogie
TTITLE17=Lonnie Glosson - Pan American Boogie
TTITLE18=Hank Penny - Twon Timin' Mama
TTITLE19=Hank Williams - Howlin' At The Moon
TTITLE20=Faron Young - Life Fast, Love Hard, Die Young
TTITLE21=Wayne Raney - Jack And Jill Boogie
TTITLE22=Skeets McDonald - Don't Let The Star Get In Your Eyes
TTITLE23=Tommy Collins - You Better Not Do That
TTITLE24=Tennessee Ernie Ford - Blackberry Boogie
EXTD=
EXTT0=
EXTT1=
EXTT2=
EXTT3=
EXTT4=
EXTT5=
EXTT6=
EXTT7=
EXTT8=
EXTT9=
EXTT10=
EXTT11=
EXTT12=
EXTT13=
EXTT14=
EXTT15=
EXTT16=
EXTT17=
EXTT18=
EXTT19=
EXTT20=
EXTT21=
EXTT22=
EXTT23=
EXTT24=
PLAYORDER=
